<?xml version="1.0" encoding="UTF-8" standalone="no"?>
<!-- Created with Inkscape (http://www.inkscape.org/) -->
<svg xmlns:dc="http://purl.org/dc/elements/1.1/" xmlns:cc="http://creativecommons.org/ns#" xmlns:rdf="http://www.w3.org/1999/02/22-rdf-syntax-ns#" xmlns:svg="http://www.w3.org/2000/svg" xmlns="http://www.w3.org/2000/svg" xmlns:sodipodi="http://sodipodi.sourceforge.net/DTD/sodipodi-0.dtd" xmlns:inkscape="http://www.inkscape.org/namespaces/inkscape" width="720.4726" height="483.15637" id="svg2" sodipodi:version="0.32" inkscape:version="0.45.1+0.46pre1" sodipodi:docbase="/Users/Nicola/Desktop" sodipodi:docname="Feynman_second_order_radiative1.svg" version="1.0" inkscape:output_extension="org.inkscape.output.svg.inkscape">
  <defs id="defs4"/>
  <sodipodi:namedview id="base" pagecolor="#ffffff" bordercolor="#666666" borderopacity="1.0" gridtolerance="10000" guidetolerance="10" objecttolerance="10" inkscape:pageopacity="0.0" inkscape:pageshadow="2" inkscape:zoom="1.1717437" inkscape:cx="246.76642" inkscape:cy="222.27937" inkscape:document-units="px" inkscape:current-layer="layer1" inkscape:window-width="1680" inkscape:window-height="974" inkscape:window-x="0" inkscape:window-y="50" height="500.36px" width="744.09448px" showgrid="false"/>
  <metadata id="metadata7">
    <rdf:RDF>
      <cc:Work rdf:about="">
        <dc:format>image/svg+xml</dc:format>
        <dc:type rdf:resource="http://purl.org/dc/dcmitype/StillImage"/>
      </cc:Work>
    </rdf:RDF>
  </metadata>
  <g inkscape:label="Layer 1" inkscape:groupmode="layer" id="layer1" transform="translate(-14.82002,-13.154438)">
    <path style="fill:#000000" d="M 383.13243,311.47163 C 382.98816,311.12243 383.74873,307.74848 384.82267,303.97393 C 386.98524,296.37316 387.4733,291.8352 386.61839,287.27639 C 385.37446,280.64301 381.79372,277.52725 375.93284,277.97864 C 372.44239,278.24741 369.63597,279.92323 367.9042,282.77282 C 366.52978,285.03438 365.68364,285.41193 365.68364,283.76362 C 365.68364,281.37258 370.42824,275.82711 373.64377,274.45982 C 377.09866,272.99082 381.07177,273.62878 383.51239,276.04444 C 385.88864,278.39644 388.42688,285.35309 388.42688,289.51375 C 388.42688,290.66502 388.59591,291.40021 388.80911,291.17638 C 389.01934,290.95568 390.15687,288.58914 391.33692,285.91742 C 393.9982,279.8921 397.14728,274.30962 397.75162,274.54587 C 398.41258,274.80421 398.33835,274.99991 395.11959,281.48215 C 391.34771,289.07832 388.67443,295.90814 388.01005,299.64561 C 387.27098,303.80337 385.70988,309.56921 384.95072,310.94499 C 384.23972,312.23354 383.53199,312.43853 383.13243,311.47163 z" id="path3905"/>
    <g id="g5720" transform="matrix(1.56715,0,0,1.60001,-187.197,-253.245)">
      <path id="path2079" d="M 219.11593,317.84898 L 131.42649,186.93236" style="fill:none;fill-rule:evenodd;stroke:#000000;stroke-width:3.7890873;stroke-linecap:round;stroke-linejoin:miter;stroke-miterlimit:4;stroke-dasharray:none;stroke-opacity:1"/>
      <path id="path5716" style="font-size:12px;fill-rule:evenodd;stroke-width:0.625;stroke-linejoin:round" d="M 162.31875,251.27971 L 153.88353,220.52513 L 180.01448,238.80546 C 172.02958,238.57099 164.89845,243.63171 162.31875,251.27971 z"/>
    </g>
    <g id="g5724" transform="matrix(-1.56715,0,0,1.60001,361.20755,-43.264192)">
      <path id="path5726" d="M 219.11593,317.84898 L 131.42649,186.93236" style="fill:none;fill-rule:evenodd;stroke:#000000;stroke-width:3.7890873;stroke-linecap:round;stroke-linejoin:miter;stroke-miterlimit:4;stroke-dasharray:none;stroke-opacity:1"/>
      <path id="path5728" style="font-size:12px;fill-rule:evenodd;stroke-width:0.625;stroke-linejoin:round" d="M 162.31875,251.27971 L 153.88353,220.52513 L 180.01448,238.80546 C 172.02958,238.57099 164.89845,243.63171 162.31875,251.27971 z"/>
    </g>
    <g id="g5730" transform="matrix(-1.56715,0,0,1.60001,937.30966,-255.131)">
      <path id="path5732" d="M 219.11593,317.84898 L 131.42649,186.93236" style="fill:none;fill-rule:evenodd;stroke:#000000;stroke-width:3.7890873;stroke-linecap:round;stroke-linejoin:miter;stroke-miterlimit:4;stroke-dasharray:none;stroke-opacity:1"/>
      <path id="path5734" style="font-size:12px;fill-rule:evenodd;stroke-width:0.625;stroke-linejoin:round" d="M 162.31875,251.27971 L 153.88353,220.52513 L 180.01448,238.80546 C 172.02958,238.57099 164.89845,243.63171 162.31875,251.27971 z"/>
    </g>
    <g id="g5736" transform="matrix(1.56715,0,0,1.60001,388.90511,-45.150195)">
      <path id="path5738" d="M 219.11593,317.84898 L 131.42649,186.93236" style="fill:none;fill-rule:evenodd;stroke:#000000;stroke-width:3.7890873;stroke-linecap:round;stroke-linejoin:miter;stroke-miterlimit:4;stroke-dasharray:none;stroke-opacity:1"/>
      <path id="path5740" style="font-size:12px;fill-rule:evenodd;stroke-width:0.625;stroke-linejoin:round" d="M 162.31875,251.27971 L 153.88353,220.52513 L 180.01448,238.80546 C 172.02958,238.57099 164.89845,243.63171 162.31875,251.27971 z"/>
    </g>
    <g id="g5756" transform="matrix(1.56715,0,0,1.60001,-187.197,-253.245)">
      <text id="text5744" y="467.44601" x="136.452" xml:space="preserve"><tspan style="font-size:24px;font-family:Verdana" y="467.44601" x="136.452" id="tspan5746" sodipodi:role="line">e</tspan></text>
      <text id="text5752" y="458.755" x="150.35699" xml:space="preserve"><tspan style="font-size:24px;font-family:Verdana" y="458.755" x="150.35699" id="tspan5754" sodipodi:role="line">-</tspan></text>
    </g>
    <g id="g5762" transform="matrix(1.56715,0,0,1.60001,-186.607,-706.94557)">
      <text id="text5764" y="467.44601" x="136.452" xml:space="preserve"><tspan style="font-size:24px;font-family:Verdana" y="467.44601" x="136.452" id="tspan5766" sodipodi:role="line">e</tspan></text>
      <text id="text5768" y="458.755" x="150.35699" xml:space="preserve"><tspan style="font-size:24px;font-family:Verdana" y="458.755" x="150.35699" id="tspan5770" sodipodi:role="line">-</tspan></text>
    </g>
    <g id="g5772" transform="matrix(1.56715,0,0,1.60001,466.646,-252.095)">
      <text id="text5774" y="467.44601" x="136.452" xml:space="preserve"><tspan style="font-size:24px;font-family:Verdana" y="467.44601" x="136.452" id="tspan5776" sodipodi:role="line">e</tspan></text>
      <text id="text5778" y="458.755" x="150.35699" xml:space="preserve"><tspan style="font-size:24px;font-family:Verdana" y="458.755" x="150.35699" id="tspan5780" sodipodi:role="line">-</tspan></text>
    </g>
    <g id="g5782" transform="matrix(1.56715,0,0,1.60001,474.818,-704.039)">
      <text id="text5784" y="467.44601" x="136.452" xml:space="preserve"><tspan style="font-size:24px;font-family:Verdana" y="467.44601" x="136.452" id="tspan5786" sodipodi:role="line">e</tspan></text>
      <text id="text5788" y="458.755" x="150.35699" xml:space="preserve"><tspan style="font-size:24px;font-family:Verdana" y="458.755" x="150.35699" id="tspan5790" sodipodi:role="line">-</tspan></text>
    </g>
    <path id="path4672" style="fill:none;fill-rule:evenodd;stroke:#000000;stroke-width:3;stroke-linecap:butt;stroke-linejoin:miter;stroke-miterlimit:4;stroke-dasharray:none;stroke-opacity:1" d="M 155.55136,257.80438 C 160.26762,249.96805 174.38652,251.05392 178.24912,257.80438 C 182.13963,264.60356 193.38109,264.59371 198.49848,257.80438 C 203.65714,250.96031 213.47459,250.22404 218.34286,257.80438 M 469.31975,255.83925 C 472.91753,263.59856 485.26676,263.65957 489.56911,255.83925 C 493.89772,247.97118 507.28069,249.10183 511.79877,255.83925 C 516.28093,262.5232 527.29611,263.77849 532.07431,255.83925 C 536.79056,248.00292 550.90946,249.08879 554.77205,255.83925 C 558.66257,262.63843 569.90404,262.62858 575.02142,255.83925 C 580.18009,248.99518 589.99752,248.25891 594.86579,255.83925 M 343.2366,255.81491 C 346.83439,263.57422 359.18361,263.63523 363.48597,255.81491 C 367.81457,247.94684 381.19755,249.0775 385.71562,255.81491 C 390.19779,262.49887 401.21296,263.75416 405.99116,255.81491 C 410.70742,247.97858 424.82631,249.06445 428.68891,255.81491 C 432.57942,262.61409 443.82089,262.60424 448.93828,255.81491 C 454.09694,248.97084 463.91438,248.23457 468.78265,255.81491 M 218.26291,256.79748 C 221.86069,264.55679 234.20991,264.6178 238.51228,256.79748 C 242.84087,248.92941 256.22386,250.06006 260.74192,256.79748 C 265.2241,263.48144 276.23926,264.73673 281.01746,256.79748 C 285.73372,248.96115 299.85261,250.04701 303.71522,256.79748 C 307.60572,263.59665 318.84719,263.5868 323.96457,256.79748 C 329.12324,249.9534 338.94068,249.21713 343.80895,256.79748"/>
  </g>
</svg>